<svg width="135" height="38" viewBox="0 0 135 38" fill="none" xmlns="http://www.w3.org/2000/svg">
<path fill-rule="evenodd" clip-rule="evenodd" d="M11.8556 8.73102C11.3966 8.97506 10.4836 10.5835 10.1225 11.1215C8.7763 13.1016 6.1354 16.5403 5.66602 18.6369C4.63442 23.257 8.25534 27.4612 12.3611 27.4722C16.4978 27.4833 20.0053 22.9852 18.1484 18.3928C17.2458 16.1687 14.9762 13.0516 13.5629 11.005C13.1812 10.4559 12.2425 9.08599 11.8556 8.73102ZM34.1125 29.175C35.2008 27.4944 36.1447 26.1411 37.2331 24.5438C38.244 23.0684 39.6212 21.4544 39.8379 19.2802C40.2711 14.943 36.4852 10.8165 32.3639 11.2491C30.1305 11.482 28.6192 12.6634 27.6443 14.233C24.6836 18.9918 29.2536 22.5581 32.3639 27.0341C32.6476 27.439 32.9055 27.7662 33.2098 28.1766C33.4935 28.5593 33.7463 29.0973 34.1125 29.175ZM23.8119 25.1261C24.663 25.764 31.5696 36.1412 32.9829 36.8955C35.206 38.0714 36.8514 35.3037 38.0016 33.5677L42.7934 26.2742C45.7077 21.7983 46.337 16.8953 43.7012 12.1032C39.3117 4.12197 28.2581 3.07925 22.9969 11.0106C22.6204 11.5819 22.1201 12.3084 21.7745 12.8464L19.1749 9.34667C17.7203 7.32778 15.3786 4.55459 13.8518 2.49134C12.9182 1.22676 11.6699 0.0786598 9.93685 1.34878C9.02904 2.01435 5.80013 7.37215 4.9439 8.69774C3.14891 11.4709 1.23528 13.3123 0.430634 16.5736C-1.46752 24.3053 3.22628 30.667 8.30692 32.5416C12.7119 34.1612 18.3547 32.9299 21.3309 28.9254C21.8364 28.2432 23.4509 25.8139 23.8119 25.1261Z" fill="#08415C"/>
<path fill-rule="evenodd" clip-rule="evenodd" d="M9.68927 1.60939C10.3237 1.03256 11.8763 1.17122 12.4952 1.65376C13.0678 2.09747 13.6506 2.90724 13.8724 3.8945C14.12 6.08532 12.6242 7.34435 11.8247 8.74758C15.4095 12.8685 30.1924 35.6975 33.2098 37.0341C34.1073 37.439 34.9171 37.2726 35.5051 36.6403C34.2775 36.7291 33.5554 36.8622 32.7714 36.0691C32.0751 35.3758 31.714 35.0153 31.5231 33.6675C31.4045 32.8244 32.1318 31.7651 32.6012 31.1106C33.0138 30.5338 33.5399 29.8571 34.0764 29.1638C33.8443 29.064 27.4432 20.1787 26.5766 19.0694C24.5237 16.446 22.5843 13.7781 20.6088 11.1159L16.4824 5.70816C15.6726 4.56006 14.5688 3.2012 13.7022 2.13629C12.3405 0.461285 10.6641 0.317079 9.68927 1.60939Z" fill="#F3B352"/>
<path fill-rule="evenodd" clip-rule="evenodd" d="M53.4728 5.94825C53.287 7.27086 53.2003 9.28141 54.5418 9.36574C57.7571 9.5699 57.3939 8.19403 57.4104 15.8501C57.4187 20.6301 56.6097 24.518 62.5863 24.6246C65.4549 24.6734 67.4774 23.5993 68.9179 21.8906C70.3832 20.1552 71.609 18.3178 71.4811 15.0822C71.25 9.17933 67.5682 5.96601 62.2809 5.93494C59.5031 5.91719 56.1969 5.77072 53.4728 5.94825ZM61.4554 9.39237C61.2531 12.0465 61.4347 15.6104 61.4389 18.3666C61.4389 20.1552 61.0798 21.287 62.9949 21.2737C64.5551 21.2603 65.2073 20.7988 65.8759 19.8268C67.1059 18.0426 67.593 15.2021 66.8253 12.5968C66.0245 9.86282 64.6005 9.22815 61.4554 9.39237Z" fill="#08415C"/>
<path fill-rule="evenodd" clip-rule="evenodd" d="M90.1994 28.7923C90.1374 31.1667 89.7288 32.6003 92.9194 32.3695C94.6736 32.2408 95.7839 31.0158 96.5475 29.7065C97.2987 28.4194 97.8476 26.653 98.4172 25.1529C99.932 21.1762 101.179 17.3237 102.735 13.2716C103.601 11.0258 100.068 10.6619 99.4615 12.2685L97.1418 19.6272C96.6837 18.38 96.2544 17.0663 95.8499 15.7614C95.5569 14.8205 94.9212 12.4682 94.492 11.8646C93.7944 10.8838 91.3881 10.9459 91.0538 12.2019C90.8556 12.952 95.1028 22.7784 95.0946 23.7282C95.0946 24.0655 93.9595 28.273 92.4241 28.881C91.384 29.2938 90.9918 28.739 90.1994 28.7923Z" fill="#08415C"/>
<path fill-rule="evenodd" clip-rule="evenodd" d="M132.267 23.9014L132.304 21.1008C131.512 21.1141 130.67 22.0151 128.853 21.7665C127.838 21.629 126.839 20.8389 126.629 19.7959C127.661 20.0223 128.036 20.3197 129.349 20.2087C130.286 20.1288 131.152 19.8314 131.879 19.4364C133.258 18.6819 134.318 17.2794 134.19 14.9715C133.976 11.0392 128.886 10.0938 125.783 11.8869C119.558 15.4864 122.022 27.8869 132.267 23.9014ZM126.641 17.5502C127.805 17.6567 128.92 17.6034 129.675 16.9554C130.249 16.4628 130.917 15.1224 130.129 14.257C128.647 12.6281 126.129 15.5618 126.641 17.5502Z" fill="#08415C"/>
<path fill-rule="evenodd" clip-rule="evenodd" d="M82.5923 23.9014L82.6212 20.9233C82.2828 20.9943 81.6678 21.3538 81.1807 21.5136C79.5999 22.0329 77.4618 21.8554 76.9707 19.9025C77.9737 19.9735 78.4153 20.3508 79.7898 20.2176C82.1961 19.9735 84.6561 18.2692 84.4538 14.9716C84.2103 11.0614 79.0509 10.2004 76.075 11.8559C73.4623 13.3072 71.6833 17.892 73.4128 21.3982C75.0225 24.6604 78.7084 25.4193 82.5923 23.9014ZM79.0055 13.8753C78.1305 14.1416 77.5279 14.9627 77.1523 15.9657C76.5703 17.5369 76.9046 17.963 78.6423 17.6479C81.2715 17.173 81.288 13.1696 79.0055 13.8753Z" fill="#08415C"/>
<path fill-rule="evenodd" clip-rule="evenodd" d="M107.692 14.6384L105.071 18.1846C104.559 18.8637 102.627 21.1316 102.557 21.8639C102.256 24.9707 104.646 24.4781 106.053 24.4781C107.993 24.4825 110.007 24.5314 111.943 24.4648C112.046 23.8345 111.98 23.1599 111.972 22.5208C111.939 20.7366 110.936 21.4068 107.192 21.389C107.283 20.7189 109.231 18.3666 109.702 17.6919C110.189 16.9907 110.515 16.5602 110.944 15.9655C111.27 15.5083 111.976 14.6162 112.178 14.1147C112.488 13.3469 112.244 12.0908 111.708 11.7402C111.188 11.394 103.824 11.5316 103.102 11.5982C103.139 12.579 102.978 14.4076 103.94 14.5985C104.736 14.7627 106.709 14.5851 107.692 14.6384Z" fill="#08415C"/>
<path fill-rule="evenodd" clip-rule="evenodd" d="M117.557 14.6385C117.144 15.6016 112.674 20.8388 112.579 21.8641C112.294 25.0197 114.469 24.4738 115.926 24.4826C117.573 24.4915 120.235 24.6513 121.771 24.4427C121.861 23.8568 121.808 23.0269 121.812 22.41C121.82 21.5711 121.692 21.3537 120.916 21.3226C119.633 21.2738 118.312 21.3892 117.016 21.3359C117.177 20.8255 121.412 15.4996 121.923 14.3145C122.241 13.5733 122.13 12.2419 121.626 11.8025C121.114 11.3586 119.748 11.5406 118.98 11.5406C117.049 11.5406 115.063 11.5007 113.144 11.5495C113.103 12.7656 112.847 14.4166 113.908 14.6208C114.808 14.7983 116.496 14.532 117.557 14.6385Z" fill="#08415C"/>
<path fill-rule="evenodd" clip-rule="evenodd" d="M92.3539 21.3848C91.5655 21.3892 90.8432 21.7177 90.3149 21.0564C89.9311 20.5726 90.1044 19.1568 90.1044 18.4777C90.1085 16.8045 90.22 8.08324 90.0838 7.2089C89.8568 5.74871 87.8384 5.36701 86.27 5.73983C86.1503 6.71625 86.2411 8.24302 86.2411 9.28158V20.1199C86.2658 22.5698 86.8684 23.9679 88.862 24.4827C89.7288 24.7091 91.0909 24.7535 91.8751 24.354C92.4034 24.0877 92.3828 23.8259 92.3787 23.1867C92.3787 22.592 92.3869 21.9795 92.3539 21.3848Z" fill="#08415C"/>
</svg>
